<svg width="53" height="52" viewBox="0 0 53 52" fill="none" xmlns="http://www.w3.org/2000/svg">
<circle cx="26.2276" cy="25.8455" r="25.8455" fill="#292E36" fill-opacity="0.1"/>
<path d="M35.4116 20.6403C34.7439 20.9304 34.0375 21.1216 33.3147 21.2077C34.0743 20.7628 34.6456 20.0561 34.9214 19.2201C34.2032 19.6401 33.4187 19.9348 32.6016 20.0915C32.2575 19.7309 31.8437 19.4441 31.3853 19.2484C30.9269 19.0527 30.4335 18.9522 29.935 18.9531C27.9171 18.9531 26.284 20.5625 26.284 22.5463C26.2826 22.8223 26.3142 23.0974 26.3782 23.3658C24.9312 23.298 23.5142 22.9288 22.218 22.282C20.9218 21.6352 19.7749 20.7249 18.8507 19.6095C18.5264 20.1561 18.3549 20.7798 18.3541 21.4153C18.3541 22.6613 19.0042 23.7626 19.9857 24.4078C19.4042 24.394 18.8346 24.2401 18.3252 23.9591V24.0036C18.3252 25.7464 19.586 27.1963 21.2547 27.5264C20.9409 27.61 20.6175 27.6524 20.2928 27.6524C20.0623 27.6528 19.8324 27.6305 19.6064 27.5857C20.0703 29.0133 21.4204 30.0516 23.0197 30.0813C21.7202 31.0828 20.1246 31.6241 18.4839 31.6201C18.1927 31.6197 17.9017 31.6024 17.6125 31.5682C19.2816 32.634 21.2218 33.1978 23.2022 33.1924C29.9273 33.1924 33.6013 27.7155 33.6013 22.9653C33.6013 22.8096 33.5972 22.6539 33.5898 22.5018C34.3029 21.9946 34.9198 21.3642 35.4116 20.6403V20.6403Z" fill="#292E36"/>
</svg>
