<svg width="27" height="22" viewBox="0 0 27 22" fill="none" xmlns="http://www.w3.org/2000/svg">
<path d="M26.0153 3.27439C25.0599 3.68696 24.049 3.95877 23.0146 4.08123C24.1017 3.44862 24.9192 2.4436 25.3138 1.25467C24.286 1.85193 23.1634 2.271 21.9942 2.49393C21.5018 1.9811 20.9096 1.57313 20.2536 1.29482C19.5977 1.01651 18.8916 0.87367 18.1784 0.87498C15.2906 0.87498 12.9537 3.16365 12.9537 5.98494C12.9517 6.37737 12.9969 6.76863 13.0885 7.15037C11.0178 7.0539 8.99017 6.52894 7.13532 5.60908C5.28046 4.68922 3.63923 3.39471 2.31663 1.80838C1.85263 2.58575 1.60725 3.4727 1.60611 4.37654C1.60611 6.14842 2.53632 7.71463 3.94091 8.6322C3.10873 8.61258 2.2936 8.39369 1.56473 7.99412V8.0574C1.56473 10.5359 3.36888 12.5978 5.75674 13.0672C5.30771 13.1861 4.84498 13.2464 4.38027 13.2465C4.05052 13.247 3.72153 13.2152 3.39807 13.1515C4.06189 15.1818 5.99393 16.6584 8.28256 16.7006C6.42289 18.1249 4.13969 18.8947 1.79184 18.889C1.37509 18.8884 0.958722 18.8638 0.544846 18.8152C2.93333 20.3309 5.70975 21.1326 8.54363 21.125C18.1672 21.125 23.4247 13.3361 23.4247 6.58084C23.4247 6.35935 23.4189 6.13787 23.4083 5.92166C24.4288 5.20028 25.3116 4.30383 26.0153 3.27439V3.27439Z" fill="white"/>
</svg>
