<svg width="272" height="7" viewBox="0 0 272 7" fill="none" xmlns="http://www.w3.org/2000/svg">
<circle cx="268.5" cy="3.5" r="3.5" fill="#C4C4C4"/>
<path fill-rule="evenodd" clip-rule="evenodd" d="M4.99242 4H3V3H4.99242V4ZM12.9621 4H8.97727V3H12.9621V4ZM20.9318 4H16.947V3H20.9318V4ZM28.9015 4H24.9167V3H28.9015V4ZM36.8712 4H32.8864V3H36.8712V4ZM44.8409 4H40.8561V3H44.8409V4ZM52.8106 4H48.8258V3H52.8106V4ZM60.7803 4H56.7955V3H60.7803V4ZM68.75 4H64.7651V3H68.75V4ZM76.7197 4H72.7348V3H76.7197V4ZM84.6894 4H80.7045V3H84.6894V4ZM92.6591 4H88.6742V3H92.6591V4ZM100.629 4H96.6439V3H100.629V4ZM108.598 4H104.614V3H108.598V4ZM116.568 4H112.583V3H116.568V4ZM124.538 4H120.553V3H124.538V4ZM132.508 4H128.523V3H132.508V4ZM140.477 4H136.492V3H140.477V4ZM148.447 4H144.462V3H148.447V4ZM156.417 4H152.432V3H156.417V4ZM164.386 4H160.402V3H164.386V4ZM172.356 4H168.371V3H172.356V4ZM180.326 4H176.341V3H180.326V4ZM188.295 4H184.311V3H188.295V4ZM196.265 4H192.28V3H196.265V4ZM204.235 4H200.25V3H204.235V4ZM212.205 4H208.22V3H212.205V4ZM220.174 4H216.189V3H220.174V4ZM228.144 4H224.159V3H228.144V4ZM236.114 4H232.129V3H236.114V4ZM244.083 4H240.098V3H244.083V4ZM252.053 4H248.068V3H252.053V4ZM260.023 4H256.038V3H260.023V4ZM266 4H264.008V3H266V4Z" fill="#AAAAAA"/>
<circle cx="3.5" cy="3.5" r="3.5" fill="#C4C4C4"/>
</svg>
