<svg width="28" height="28" viewBox="0 0 28 28" fill="none" xmlns="http://www.w3.org/2000/svg">
<path d="M25.7294 21.1945C24.7943 20.2524 22.5298 18.8775 21.431 18.3235C20.0002 17.6028 19.8825 17.5439 18.7579 18.3794C18.0077 18.937 17.509 19.4351 16.6311 19.2479C15.7532 19.0607 13.8454 18.0049 12.175 16.3398C10.5045 14.6746 9.38754 12.7115 9.19971 11.8366C9.01188 10.9616 9.51826 10.4687 10.0706 9.71684C10.849 8.65698 10.7901 8.48034 10.1247 7.04953C9.60599 5.93668 8.19108 3.69332 7.24545 2.763C6.23388 1.76379 6.23388 1.94043 5.58207 2.21128C5.05141 2.43455 4.54232 2.70595 4.06117 3.02207C3.11908 3.64798 2.59621 4.1679 2.23056 4.94925C1.86491 5.7306 1.70063 7.56238 3.58895 10.9928C5.47726 14.4232 6.80208 16.1773 9.54416 18.9117C12.2862 21.6461 14.3948 23.1164 17.4772 24.8451C21.2903 26.9807 22.7529 26.5644 23.5366 26.1994C24.3203 25.8343 24.8426 25.3162 25.4697 24.3741C25.7866 23.8937 26.0586 23.3852 26.2823 22.8549C26.5537 22.2055 26.7303 22.2055 25.7294 21.1945Z" stroke="#E1B168" stroke-width="2.1" stroke-miterlimit="10"/>
</svg>
