<svg width="53" height="52" viewBox="0 0 53 52" fill="none" xmlns="http://www.w3.org/2000/svg">
<circle cx="26.5365" cy="25.8455" r="25.8455" fill="#292E36" fill-opacity="0.1"/>
<path fill-rule="evenodd" clip-rule="evenodd" d="M34.5359 26.0904C34.5359 21.6733 30.8167 18.0918 26.2297 18.0918C21.6427 18.0918 17.9234 21.6733 17.9234 26.0904C17.9234 30.0826 20.9604 33.3916 24.9318 33.9922V28.4032H22.8223V26.0904H24.9318V24.3282C24.9318 22.3239 26.1722 21.2159 28.0693 21.2159C28.9782 21.2159 29.9289 21.3723 29.9289 21.3723V23.3409H28.881C27.8498 23.3409 27.5272 23.9572 27.5272 24.5907V26.0904H29.8307L29.4628 28.4032H27.5275V33.9929C31.499 33.3927 34.5359 30.0836 34.5359 26.0904V26.0904Z" fill="#292E36"/>
</svg>
