<svg width="52" height="52" viewBox="0 0 52 52" fill="none" xmlns="http://www.w3.org/2000/svg">
<circle cx="25.9186" cy="25.8455" r="25.8455" fill="#292E36" fill-opacity="0.1"/>
<path d="M25.7435 17.2305C21.0827 17.2305 17.3035 21.0079 17.3035 25.6667C17.3035 29.1202 19.3834 32.088 22.3562 33.3948C22.3336 32.8073 22.3525 32.0993 22.5032 31.459C22.6652 30.7736 23.5883 26.8605 23.5883 26.8605C23.5883 26.8605 23.317 26.322 23.317 25.5273C23.317 24.277 24.0404 23.343 24.9447 23.343C25.7134 23.343 26.0826 23.9192 26.0826 24.6084C26.0826 25.3804 25.589 26.5329 25.3366 27.6025C25.1256 28.4988 25.785 29.2257 26.6704 29.2257C28.268 29.2257 29.3456 27.1731 29.3456 24.7402C29.3456 22.891 28.0984 21.5088 25.8339 21.5088C23.2756 21.5088 21.678 23.4183 21.678 25.5499C21.678 26.2843 21.8965 26.8041 22.2357 27.2033C22.3901 27.3878 22.4127 27.4631 22.3562 27.674C22.3148 27.8284 22.2243 28.2013 22.1829 28.3519C22.1264 28.5666 21.9531 28.6419 21.7609 28.5629C20.5816 28.0808 20.0315 26.7928 20.0315 25.339C20.0315 22.9437 22.0548 20.0702 26.0638 20.0702C29.2853 20.0702 31.4066 22.4014 31.4066 24.9021C31.4066 28.2126 29.5641 30.6832 26.8513 30.6832C25.9394 30.6832 25.0841 30.1898 24.7902 29.6324C24.7902 29.6324 24.3004 31.5758 24.1949 31.9524C24.0178 32.6039 23.6674 33.2517 23.3472 33.7602C24.1241 33.9892 24.9298 34.1059 25.7397 34.1066C30.4006 34.1066 34.1797 30.3292 34.1797 25.6704C34.1797 21.0117 30.4043 17.2305 25.7435 17.2305Z" fill="#292E36"/>
</svg>
