<svg width="25" height="24" viewBox="0 0 25 24" fill="none" xmlns="http://www.w3.org/2000/svg">
<path fill-rule="evenodd" clip-rule="evenodd" d="M24.5448 12.0683C24.5448 5.78666 19.2226 0.693301 12.6586 0.693301C6.09469 0.693301 0.772423 5.78666 0.772423 12.0683C0.772423 17.7456 5.11832 22.4515 10.8014 23.3057V15.3574H7.78264V12.0683H10.8014V9.56225C10.8014 6.71189 12.5764 5.13615 15.2911 5.13615C16.5917 5.13615 17.9522 5.35857 17.9522 5.35857V8.15814H16.4527C14.977 8.15814 14.5153 9.03463 14.5153 9.93549V12.0683H17.8116L17.2852 15.3574H14.5159V23.3067C20.199 22.4531 24.5448 17.7472 24.5448 12.0683V12.0683Z" fill="white"/>
</svg>
