<svg width="52" height="52" viewBox="0 0 52 52" fill="none" xmlns="http://www.w3.org/2000/svg">
<circle cx="25.8455" cy="25.8455" r="25.8455" fill="#292E36" fill-opacity="0.1"/>
<path d="M28.9975 19.4248C29.9146 19.4274 30.7934 19.7794 31.4419 20.4039C32.0904 21.0284 32.456 21.8746 32.4587 22.7578V29.423C32.456 30.3062 32.0904 31.1524 31.4419 31.7769C30.7934 32.4014 29.9146 32.7534 28.9975 32.756H22.0759C21.1588 32.7534 20.28 32.4014 19.6315 31.7769C18.983 31.1524 18.6175 30.3062 18.6147 29.423V22.7578C18.6175 21.8746 18.983 21.0284 19.6315 20.4039C20.28 19.7794 21.1588 19.4274 22.0759 19.4248H28.9975V19.4248ZM28.9975 18.0918H22.0759C19.4109 18.0918 17.2305 20.1914 17.2305 22.7578V29.423C17.2305 31.9894 19.4109 34.089 22.0759 34.089H28.9975C31.6626 34.089 33.843 31.9894 33.843 29.423V22.7578C33.843 20.1914 31.6626 18.0918 28.9975 18.0918V18.0918Z" fill="#292E36"/>
<path d="M30.035 22.758C29.8297 22.758 29.6289 22.6993 29.4582 22.5895C29.2874 22.4796 29.1544 22.3234 29.0758 22.1407C28.9972 21.958 28.9766 21.757 29.0167 21.5631C29.0568 21.3691 29.1556 21.191 29.3008 21.0511C29.4461 20.9113 29.6311 20.8161 29.8325 20.7775C30.0339 20.7389 30.2426 20.7587 30.4324 20.8344C30.6221 20.9101 30.7842 21.0382 30.8983 21.2027C31.0124 21.3671 31.0733 21.5604 31.0733 21.7581C31.0736 21.8895 31.0469 22.0196 30.9949 22.1411C30.9428 22.2625 30.8663 22.3728 30.7699 22.4657C30.6734 22.5586 30.5588 22.6323 30.4327 22.6824C30.3066 22.7326 30.1715 22.7582 30.035 22.758V22.758ZM25.5359 23.4243C26.0836 23.4243 26.6189 23.5806 27.0742 23.8736C27.5296 24.1666 27.8845 24.583 28.094 25.0702C28.3036 25.5574 28.3584 26.0935 28.2516 26.6108C28.1448 27.128 27.8811 27.6031 27.4938 27.976C27.1066 28.3488 26.6132 28.6028 26.0761 28.7057C25.539 28.8086 24.9823 28.7558 24.4763 28.5539C23.9704 28.3521 23.538 28.0104 23.2337 27.5719C22.9295 27.1334 22.7671 26.6179 22.7671 26.0906C22.7678 25.3837 23.0598 24.7059 23.5789 24.206C24.098 23.7062 24.8018 23.425 25.5359 23.4243V23.4243ZM25.5359 22.0913C24.7145 22.0913 23.9116 22.3258 23.2286 22.7653C22.5456 23.2047 22.0133 23.8293 21.699 24.5601C21.3846 25.2909 21.3024 26.095 21.4626 26.8708C21.6229 27.6466 22.0184 28.3592 22.5992 28.9185C23.1801 29.4778 23.9201 29.8587 24.7257 30.013C25.5313 30.1674 26.3664 30.0882 27.1253 29.7855C27.8841 29.4828 28.5328 28.9702 28.9891 28.3125C29.4455 27.6548 29.6891 26.8816 29.6891 26.0906C29.6891 25.0299 29.2515 24.0127 28.4726 23.2627C27.6938 22.5126 26.6374 22.0913 25.5359 22.0913V22.0913Z" fill="#292E36"/>
</svg>
