<svg width="25" height="24" viewBox="0 0 25 24" fill="none" xmlns="http://www.w3.org/2000/svg">
<path d="M12.0929 0C5.42326 0 0.0153046 5.37202 0.0153046 11.9973C0.0153046 16.9087 2.99156 21.1292 7.24568 22.9877C7.21332 22.1522 7.24028 21.1453 7.45596 20.2348C7.6878 19.26 9.00879 13.6952 9.00879 13.6952C9.00879 13.6952 8.62058 12.9293 8.62058 11.7992C8.62058 10.021 9.6558 8.6927 10.9498 8.6927C12.0497 8.6927 12.5781 9.51216 12.5781 10.4923C12.5781 11.5903 11.8718 13.2292 11.5106 14.7503C11.2086 16.025 12.1522 17.0587 13.4193 17.0587C15.7054 17.0587 17.2474 14.1397 17.2474 10.6798C17.2474 8.04999 15.4627 6.08436 12.2223 6.08436C8.56127 6.08436 6.27516 8.79982 6.27516 11.8313C6.27516 12.8757 6.58788 13.6148 7.07314 14.1825C7.2942 14.445 7.32655 14.5521 7.24568 14.852C7.18637 15.0716 7.05696 15.6019 6.99765 15.8161C6.91678 16.1214 6.66876 16.2285 6.39378 16.116C4.70615 15.4305 3.91895 13.5987 3.91895 11.5314C3.91895 8.12497 6.81433 4.03838 12.5512 4.03838C17.1612 4.03838 20.1967 7.35372 20.1967 10.9101C20.1967 15.6179 17.5601 19.1314 13.6781 19.1314C12.3733 19.1314 11.1493 18.4298 10.7288 17.6371C10.7288 17.6371 10.0278 20.4008 9.87686 20.9364C9.62345 21.863 9.12201 22.7842 8.66371 23.5073C9.77544 23.833 10.9284 23.999 12.0875 24C18.7571 24 24.1651 18.628 24.1651 12.0027C24.1651 5.37737 18.7625 0 12.0929 0Z" fill="white"/>
</svg>
