<svg width="24" height="24" viewBox="0 0 24 24" fill="none" xmlns="http://www.w3.org/2000/svg">
<path d="M16.8386 2.52066C18.151 2.52441 19.4085 3.025 20.3366 3.9131C21.2646 4.80119 21.7876 6.00463 21.7916 7.26059V16.7394C21.7876 17.9954 21.2646 19.1988 20.3366 20.0869C19.4085 20.975 18.151 21.4756 16.8386 21.4793H6.9338C5.6214 21.4756 4.36388 20.975 3.43587 20.0869C2.50786 19.1988 1.98478 17.9954 1.98086 16.7394V7.26059C1.98478 6.00463 2.50786 4.80119 3.43587 3.9131C4.36388 3.025 5.6214 2.52441 6.9338 2.52066H16.8386V2.52066ZM16.8386 0.625H6.9338C3.12013 0.625 0 3.61094 0 7.26059V16.7394C0 20.3891 3.12013 23.375 6.9338 23.375H16.8386C20.6523 23.375 23.7724 20.3891 23.7724 16.7394V7.26059C23.7724 3.61094 20.6523 0.625 16.8386 0.625V0.625Z" fill="white"/>
<path d="M18.3244 7.26074C18.0306 7.26074 17.7433 7.17735 17.499 7.02111C17.2546 6.86488 17.0642 6.64281 16.9517 6.383C16.8393 6.12318 16.8099 5.83729 16.8672 5.56147C16.9245 5.28566 17.066 5.0323 17.2738 4.83345C17.4816 4.6346 17.7463 4.49918 18.0346 4.44431C18.3228 4.38945 18.6215 4.41761 18.893 4.52523C19.1645 4.63284 19.3965 4.81509 19.5598 5.04892C19.7231 5.28274 19.8102 5.55765 19.8102 5.83887C19.8106 6.0257 19.7725 6.21078 19.6979 6.38347C19.6234 6.55616 19.514 6.71307 19.376 6.84518C19.2379 6.97729 19.0739 7.08201 18.8935 7.15333C18.713 7.22464 18.5196 7.26114 18.3244 7.26074V7.26074ZM11.8862 8.20832C12.6699 8.20832 13.4359 8.43071 14.0875 8.84736C14.7391 9.26401 15.247 9.85622 15.5469 10.5491C15.8468 11.242 15.9252 12.0044 15.7723 12.7399C15.6195 13.4755 15.2421 14.1511 14.688 14.6814C14.1338 15.2117 13.4278 15.5728 12.6592 15.7191C11.8906 15.8654 11.0939 15.7904 10.3699 15.5034C9.64594 15.2164 9.02712 14.7304 8.59174 14.1068C8.15636 13.4832 7.92398 12.7501 7.92398 12.0002C7.9251 10.9948 8.34291 10.031 9.08574 9.32011C9.82856 8.60924 10.8357 8.2094 11.8862 8.20832V8.20832ZM11.8862 6.31266C10.7108 6.31266 9.56175 6.64622 8.58442 7.27117C7.60708 7.89612 6.84533 8.78439 6.39551 9.82364C5.9457 10.8629 5.828 12.0065 6.05732 13.1097C6.28663 14.213 6.85266 15.2264 7.68382 16.0218C8.51498 16.8172 9.57394 17.3589 10.7268 17.5784C11.8796 17.7978 13.0746 17.6852 14.1606 17.2547C15.2465 16.8242 16.1747 16.0953 16.8277 15.16C17.4808 14.2247 17.8293 13.125 17.8293 12.0002C17.8293 10.4917 17.2032 9.0451 16.0886 7.97849C14.9741 6.91187 13.4624 6.31266 11.8862 6.31266V6.31266Z" fill="white"/>
</svg>
