<svg width="49" height="49" viewBox="0 0 49 49" fill="none" xmlns="http://www.w3.org/2000/svg">
<path d="M8.11703 9.80681C4.55447 13.792 2.56186 18.9245 2.50148 24.2583C2.36059 36.4555 12.3237 46.4588 24.5007 46.4991C36.6778 46.5192 46.5 36.6568 46.5 24.4998C46.5 12.524 36.9194 2.76221 25.0039 2.50056C24.9435 2.50056 24.863 2.50056 24.8026 2.54081C24.7423 2.56094 24.6819 2.60119 24.6416 2.64145C24.6014 2.6817 24.5611 2.74209 24.5209 2.80247C24.5007 2.86285 24.4806 2.92323 24.4806 3.00374V12.5844" stroke="white" stroke-width="3.5" stroke-linecap="round" stroke-linejoin="round"/>
<path d="M21.9244 27.0762L12.8671 14.1342C12.7262 13.9531 12.6859 13.7317 12.706 13.5103C12.7262 13.2889 12.8067 13.0876 12.9677 12.9266C13.1287 12.7656 13.33 12.6851 13.5514 12.6649C13.7527 12.6448 13.9741 12.7052 14.1552 12.826L27.0971 21.8833C27.8821 22.4469 28.4255 23.3123 28.5866 24.2785C28.7476 25.2446 28.5262 26.2308 27.9626 27.0359C27.399 27.841 26.5537 28.3845 25.5876 28.5656C24.6215 28.7468 23.6352 28.5253 22.8301 27.9819C22.488 27.7404 22.1659 27.4385 21.9244 27.0762Z" fill="white"/>
</svg>
